# xmcd
#
# Track frame offsets: 
#        150
#        20064
#        47245
#        68817
#        85584
#        106904
#        126397
#        148429
#        168141
#        184670
#        204448
#        229599
#        246956
#        266042
#        281628
#
# Disc length: 4030 seconds
#
# Revision: 0
# Processed by: cddbd v1.5.2PL0 Copyright (c) Steve Scherf et al.
# Submitted via: ExactAudioCopyFreeDBPlugin 1.0
#
DISCID=dc0fbc0f
DTITLE=李春波 - 楼兰新娘
DYEAR=2004
DGENRE=Country
TTITLE0=楼兰新娘
TTITLE1=爱上你的样子
TTITLE2=转来转去
TTITLE3=边走边唱
TTITLE4=咿呦咿呦
TTITLE5=小桃红
TTITLE6=一生一世
TTITLE7=贫穷与富有
TTITLE8=友谊
TTITLE9=谁能告诉我
TTITLE10=塞车
TTITLE11=呼儿嘿呦
TTITLE12=天上飘着雨
TTITLE13=一封家书
TTITLE14=小芳
EXTD=
EXTT0=
EXTT1=
EXTT2=
EXTT3=
EXTT4=
EXTT5=
EXTT6=
EXTT7=
EXTT8=
EXTT9=
EXTT10=
EXTT11=
EXTT12=
EXTT13=
EXTT14=
PLAYORDER=
